<svg width="32" height="32" viewBox="0 0 32 32" fill="none" xmlns="http://www.w3.org/2000/svg">
<path d="M27.1369 0H4.86308C2.17709 0 0 2.17709 0 4.86308V27.1377C0 29.8229 2.17709 32 4.86308 32H27.1369C29.8229 32 32 29.8229 32 27.1377V4.86308C32 2.17709 29.8229 0 27.1369 0ZM12.3092 28.7807H8.20241V15.57H12.3092V28.7807ZM12.6425 11.6514C12.6344 11.7292 12.6233 11.8062 12.6077 11.8832C12.5921 11.9603 12.5736 12.0358 12.5507 12.1107C12.5277 12.1855 12.5018 12.2595 12.4714 12.3314C12.4418 12.404 12.4084 12.4744 12.3714 12.544C12.3344 12.6129 12.2944 12.6803 12.2507 12.7455C12.2077 12.8099 12.161 12.8729 12.1107 12.9336C12.0618 12.9944 12.0092 13.0522 11.9536 13.107C11.8981 13.1625 11.8403 13.2151 11.7803 13.2648C11.7195 13.3144 11.6566 13.3611 11.5914 13.4048C11.5262 13.4485 11.4595 13.4885 11.3899 13.5255C11.321 13.5618 11.2499 13.5951 11.178 13.6255C11.1062 13.6551 11.0321 13.6818 10.9573 13.704C10.8825 13.727 10.8062 13.7462 10.7299 13.7611C10.6528 13.7766 10.5751 13.7885 10.4973 13.7959C10.4195 13.8033 10.3417 13.807 10.2632 13.807C10.1847 13.807 10.1069 13.8033 10.0291 13.7959C9.95134 13.7885 9.87356 13.7766 9.79652 13.7611C9.72023 13.7462 9.64467 13.727 9.56911 13.704C9.49429 13.6818 9.42096 13.6551 9.34836 13.6255C9.27577 13.5951 9.2054 13.5618 9.13651 13.5255C9.06762 13.4885 9.00021 13.4485 8.93502 13.4048C8.86984 13.3611 8.80687 13.3144 8.74687 13.2648C8.68613 13.2151 8.62835 13.1625 8.57279 13.107C8.51723 13.0522 8.46538 12.9944 8.41501 12.9336C8.36612 12.8729 8.31945 12.8099 8.27575 12.7455C8.23204 12.6803 8.19204 12.6129 8.155 12.544C8.11797 12.4744 8.08463 12.404 8.055 12.3314C8.02463 12.2595 7.9987 12.1855 7.97574 12.1107C7.95278 12.0358 7.93426 11.9603 7.9187 11.8832C7.90315 11.8062 7.89203 11.7292 7.88463 11.6514C7.87648 11.5736 7.87278 11.4951 7.87278 11.4166C7.87278 11.338 7.87648 11.2603 7.88463 11.1825C7.89203 11.1047 7.90315 11.0277 7.9187 10.9506C7.93426 10.8743 7.95278 10.798 7.97574 10.7232C7.9987 10.6484 8.02463 10.5743 8.055 10.5017C8.08463 10.4299 8.11797 10.3595 8.155 10.2906C8.19204 10.221 8.23204 10.1543 8.27575 10.0891C8.31945 10.0239 8.36612 9.96097 8.41501 9.90023C8.46538 9.84023 8.51723 9.78245 8.57279 9.72689C8.62835 9.67134 8.68613 9.61874 8.74687 9.56911C8.80687 9.51948 8.86984 9.47281 8.93502 9.42985C9.00021 9.38614 9.06762 9.3454 9.13651 9.30836C9.2054 9.27133 9.27577 9.23873 9.34836 9.20836C9.42096 9.17799 9.49429 9.15206 9.56911 9.1291C9.64467 9.10688 9.72023 9.08762 9.79652 9.07206C9.87356 9.05725 9.95134 9.0454 10.0291 9.03799C10.1069 9.02984 10.1847 9.02614 10.2632 9.02614C10.3417 9.02614 10.4195 9.02984 10.4973 9.03799C10.5751 9.0454 10.6528 9.05725 10.7299 9.07206C10.8062 9.08762 10.8825 9.10688 10.9573 9.1291C11.0321 9.15206 11.1062 9.17799 11.178 9.20836C11.2499 9.23873 11.321 9.27133 11.3899 9.30836C11.4595 9.3454 11.5262 9.38614 11.5914 9.42985C11.6566 9.47281 11.7195 9.51948 11.7803 9.56911C11.8403 9.61874 11.8981 9.67134 11.9536 9.72689C12.0092 9.78245 12.0618 9.84023 12.1107 9.90023C12.161 9.96097 12.2077 10.0239 12.2507 10.0891C12.2944 10.1543 12.3344 10.221 12.3714 10.2906C12.4084 10.3595 12.4418 10.4299 12.4714 10.5017C12.5018 10.5743 12.5277 10.6484 12.5507 10.7232C12.5736 10.798 12.5921 10.8743 12.6077 10.9506C12.6233 11.0277 12.6344 11.1047 12.6425 11.1825C12.6499 11.2603 12.6536 11.3388 12.6536 11.4166C12.6536 11.4943 12.6499 11.5736 12.6425 11.6514ZM27.6643 21.2131V28.7807H23.5709C23.5709 28.7807 23.5576 21.9501 23.5576 21.562C23.5576 21.1738 23.3768 20.2575 23.3768 20.2575C22.8991 18.6041 21.2331 18.8953 21.2331 18.8953C19.8123 18.9019 19.3604 19.999 19.3604 19.999C18.9086 20.8901 18.9701 22.6035 18.9701 22.6035V28.7807H14.8922V15.57H18.8012V17.393C18.853 17.376 18.8871 17.3523 18.8871 17.3523C21.1768 13.8737 25.3954 15.7678 25.3954 15.7678C27.9614 16.9382 27.6643 21.2131 27.6643 21.2131Z" fill="white"/>
</svg>
